<svg xmlns="http://www.w3.org/2000/svg" width="33" height="33" viewBox="0 0 33 33"><g><g><g><path fill="#fff" d="M16.553.011c9.067 0 16.419 7.369 16.419 16.456 0 9.089-7.352 16.457-16.42 16.457-9.067 0-16.418-7.368-16.418-16.457C.134 7.38 7.485.011 16.553.011zM13.5 20.984a1.128 1.128 0 0 0 0 1.642l.428.408a1.247 1.247 0 0 0 1.711 0l5.533-5.304c.008-.008.02-.01.028-.018l.428-.41c.238-.227.355-.527.354-.824.001-.3-.116-.598-.354-.824l-.428-.41c-.008-.009-.018-.01-.028-.02L15.64 9.878a1.246 1.246 0 0 0-1.71 0l-.429.409a1.127 1.127 0 0 0 0 1.64l4.701 4.551z"/><path fill="#749819" d="M16.553.011c9.067 0 16.419 7.369 16.419 16.456 0 9.089-7.352 16.457-16.42 16.457-9.067 0-16.418-7.368-16.418-16.457C.134 7.38 7.485.011 16.553.011zM13.5 20.984a1.128 1.128 0 0 0 0 1.642l.428.408a1.247 1.247 0 0 0 1.711 0l5.533-5.304c.008-.008.02-.01.028-.018l.428-.41c.238-.227.355-.527.354-.824.001-.3-.116-.598-.354-.824l-.428-.41c-.008-.009-.018-.01-.028-.02L15.64 9.878a1.246 1.246 0 0 0-1.71 0l-.429.409a1.127 1.127 0 0 0 0 1.64l4.701 4.551z"/></g></g></g></svg>