<svg xmlns="http://www.w3.org/2000/svg" width="22" height="17" viewBox="0 0 22 17">
  <defs>
    <style>
      .cls-1 {
        fill: #fff;
        fill-rule: evenodd;
      }
    </style>
  </defs>
  <path id="burger-icon.svg" class="cls-1" d="M1760.35,138.053h19.3a1.331,1.331,0,0,1,1.35,1.318v0.318a1.331,1.331,0,0,1-1.35,1.317h-19.3a1.331,1.331,0,0,1-1.35-1.317v-0.318A1.331,1.331,0,0,1,1760.35,138.053Zm0-14.054h19.3a1.331,1.331,0,0,1,1.35,1.317v0.318a1.331,1.331,0,0,1-1.35,1.317h-19.3a1.331,1.331,0,0,1-1.35-1.317v-0.318A1.331,1.331,0,0,1,1760.35,124Zm0,7.027h19.3a1.331,1.331,0,0,1,1.35,1.318v0.317a1.331,1.331,0,0,1-1.35,1.317h-19.3a1.331,1.331,0,0,1-1.35-1.317v-0.317A1.331,1.331,0,0,1,1760.35,131.026Z" transform="translate(-1759 -124)"/>
</svg>
