<svg xmlns="http://www.w3.org/2000/svg" width="23.97" height="18" viewBox="0 0 23.97 18">
  <defs>
    <style>
      .cls-1 {
        fill: #fff;
        fill-rule: evenodd;
      }
    </style>
  </defs>
  <path id="cart-icon.svg" class="cls-1" d="M1710.67,126.662a1.392,1.392,0,0,0-1.07-.5h-15.68l-0.15-.785a1.386,1.386,0,0,0-.95-1.06l-4.01-1.236a1.4,1.4,0,0,0-1.74.913,1.377,1.377,0,0,0,.92,1.731l3.2,0.99,2.45,10.662a1.388,1.388,0,0,0,.78,1,2.768,2.768,0,0,0-.02.289,2.36,2.36,0,0,0,4.72,0,0.86,0.86,0,0,0-.01-0.16h3.73a0.86,0.86,0,0,0-.01.16,2.36,2.36,0,0,0,4.72,0c0-.058-0.01-0.115-0.01-0.17a1.383,1.383,0,0,0,1.2-1.119l2.23-9.575A1.385,1.385,0,0,0,1710.67,126.662Zm-13.91,13.146a1.142,1.142,0,1,1,1.15-1.142A1.15,1.15,0,0,1,1696.76,139.808Zm8.43,0a1.142,1.142,0,1,1,1.15-1.142A1.15,1.15,0,0,1,1705.19,139.808Zm0.81-4.749h-9.54a0.83,0.83,0,1,1,0-1.659H1706A0.83,0.83,0,1,1,1706,135.059Zm0-4.429h-9.54a0.83,0.83,0,1,1,0-1.66H1706A0.83,0.83,0,1,1,1706,130.63Z" transform="translate(-1687 -123)"/>
</svg>
