<svg xmlns="http://www.w3.org/2000/svg" width="32" height="25" viewBox="0 0 32 25"><g><g><path fill="#fff" d="M31.397 7.14L28.5 19.758a1.818 1.818 0 0 1-1.56 1.474c.006.073.01.148.01.224 0 1.703-1.375 3.09-3.065 3.09s-3.064-1.387-3.064-3.09c0-.07.003-.141.008-.21h-4.838c.005.069.008.14.008.21 0 1.703-1.375 3.09-3.065 3.09s-3.064-1.387-3.064-3.09c0-.13.008-.255.024-.38a1.822 1.822 0 0 1-1.017-1.318L5.701 5.708l-4.17-1.304A1.827 1.827 0 0 1 .34 2.122 1.81 1.81 0 0 1 2.604.92l5.205 1.628c.638.2 1.114.736 1.24 1.397l.198 1.035h20.371c.539 0 1.05.24 1.393.658.344.418.485.968.386 1.502zM14.428 21.456a1.5 1.5 0 0 0-1.493-1.504 1.5 1.5 0 0 0-1.492 1.504 1.5 1.5 0 0 0 1.492 1.505 1.5 1.5 0 0 0 1.493-1.505zm10.95 0a1.5 1.5 0 0 0-1.492-1.504 1.5 1.5 0 0 0-1.492 1.504 1.5 1.5 0 0 0 1.492 1.505 1.5 1.5 0 0 0 1.493-1.505zm.646-5.848c0-.604-.487-1.092-1.086-1.092h-12.4c-.6 0-1.086.488-1.086 1.092a1.09 1.09 0 0 0 1.085 1.095h12.401c.6 0 1.086-.49 1.086-1.095zm0-5.834a1.09 1.09 0 0 0-1.086-1.095h-12.4c-.6 0-1.086.491-1.086 1.095 0 .606.486 1.094 1.085 1.094h12.401c.6 0 1.086-.488 1.086-1.094z"/></g></g></svg>