<svg xmlns="http://www.w3.org/2000/svg" width="16" height="15" viewBox="0 0 16 15"><g><g><path fill="#71669e" d="M5.851 7.542c0 .287-.111.556-.314.76a1.066 1.066 0 0 1-.76.314 1.076 1.076 0 0 1 0-2.148c.287 0 .557.111.76.314.203.203.315.473.314.76zm-.43 0a.64.64 0 0 0-.643-.645.646.646 0 0 0 0 1.29.642.642 0 0 0 .644-.645zm3.265 2.836c0 .287-.111.557-.314.76a1.066 1.066 0 0 1-.76.314 1.076 1.076 0 0 1 0-2.149c.287 0 .557.112.76.316.203.202.314.472.314.76zm-.43 0a.641.641 0 0 0-.644-.645.646.646 0 1 0 .456 1.1.64.64 0 0 0 .189-.455zm.116-3.292l-4.05 4.052a.214.214 0 0 1-.304 0 .215.215 0 0 1 0-.304l4.05-4.052a.215.215 0 1 1 .304.304zm6.482-5.349c-.354.662-.938 1.422-1.602 2.087-.26.26-.527.5-.794.716l.361 3.015c.005.04.008.083.008.126 0 .174-.04.366-.111.552a1.37 1.37 0 0 1-.295.474l-5.67 5.672a.786.786 0 0 1-.555.23h-.002a.786.786 0 0 1-.556-.23L.778 9.517a.785.785 0 0 1-.172-.854.79.79 0 0 1 .172-.26l2.373-2.374a.213.213 0 0 1 .304 0 .214.214 0 0 1 0 .303L1.082 8.707a.357.357 0 0 0 0 .506l4.86 4.862a.356.356 0 0 0 .506 0l5.67-5.672a.975.975 0 0 0 .197-.325 1.15 1.15 0 0 0 .082-.397.581.581 0 0 0-.004-.074l-.332-2.764a6.182 6.182 0 0 1-.82.503 3.936 3.936 0 0 1-.354.156 1.06 1.06 0 0 1-.293.556c-.202.201-.47.312-.754.312a1.069 1.069 0 0 1 0-2.134c.284 0 .552.111.754.313.138.138.234.308.28.494.06-.026.119-.053.174-.081.302-.151.626-.359.955-.61l-.081-.672a.52.52 0 0 0-.154-.296.52.52 0 0 0-.295-.154L7.548 2.76a.596.596 0 0 0-.075-.004h-.002c-.116 0-.264.03-.394.081a.97.97 0 0 0-.325.198l-2.69 2.69a.212.212 0 0 1-.151.063.216.216 0 0 1-.152-.367l2.69-2.69c.12-.12.279-.218.472-.294.187-.072.378-.11.552-.111.044 0 .086.002.126.007l3.013.362c.218-.27.458-.536.716-.794.663-.664 1.425-1.247 2.09-1.6.77-.408 1.331-.471 1.621-.181.29.29.226.85-.185 1.619zM9.708 5.141a.215.215 0 0 1 .304 0c.085.085.256.085.453.04a.635.635 0 0 0-1.076-.329.638.638 0 0 0 .901.901.644.644 0 0 0 .094-.12c-.05.005-.098.008-.143.008-.261 0-.428-.09-.533-.196a.215.215 0 0 1 0-.304zM14.735.423c-.233-.234-1.589.265-3.103 1.78-.18.18-.351.366-.511.552l.403.048a.94.94 0 0 1 .548.277.94.94 0 0 1 .276.548l.049.404c.185-.16.37-.33.55-.512.637-.636 1.194-1.36 1.528-1.985.33-.618.369-1.003.26-1.112z"/></g></g></svg>