<svg xmlns="http://www.w3.org/2000/svg" width="11.438" height="14.94" viewBox="0 0 11.438 14.94">
  <defs>
    <style>
      .cls-1 {
        fill: #fff;
        fill-rule: evenodd;
      }
    </style>
  </defs>
  <path id="news-icon.svg" class="cls-1" d="M704.454,6917.1h9.676a0.877,0.877,0,0,1,.88.88v13.19a0.884,0.884,0,0,1-.88.88h-9.676a0.884,0.884,0,0,1-.879-0.88v-13.19A0.877,0.877,0,0,1,704.454,6917.1Zm1.32,2.61h7.037a0.44,0.44,0,0,1,0,.88h-7.037A0.44,0.44,0,1,1,705.774,6919.71Zm0,2.64h7.037a0.435,0.435,0,0,1,.439.44,0.441,0.441,0,0,1-.439.44h-7.037a0.442,0.442,0,0,1-.44-0.44A0.436,0.436,0,0,1,705.774,6922.35Zm0,2.64h7.037a0.435,0.435,0,1,1,0,.87h-7.037A0.435,0.435,0,1,1,705.774,6924.99Zm0,2.63h4.4a0.442,0.442,0,0,1,.44.44,0.436,0.436,0,0,1-.44.44h-4.4a0.436,0.436,0,0,1-.44-0.44A0.442,0.442,0,0,1,705.774,6927.62Z" transform="translate(-703.562 -6917.09)"/>
</svg>
