<svg xmlns="http://www.w3.org/2000/svg" width="15" height="16" viewBox="0 0 15 16"><g><g><path fill="#fff" d="M14.62 15.712a.893.893 0 0 1-1.324 0L9.62 11.784a5.794 5.794 0 0 1-3.54 1.22c-3.36 0-6.085-2.912-6.085-6.506 0-3.593 2.725-6.505 6.085-6.505s6.085 2.912 6.085 6.505a6.766 6.766 0 0 1-1.21 3.881l3.665 3.918a1.051 1.051 0 0 1 0 1.415zm-4.327-9.214c0-2.487-1.886-4.504-4.213-4.504-2.326 0-4.212 2.017-4.212 4.504 0 2.49 1.886 4.504 4.212 4.504 2.327 0 4.213-2.015 4.213-4.504z"/></g></g></svg>