<svg xmlns="http://www.w3.org/2000/svg" width="15" height="16" viewBox="0 0 15 16"><g><g><path fill="#5442a2" d="M14.718 15.712a.893.893 0 0 1-1.324 0l-3.676-3.928a5.794 5.794 0 0 1-3.54 1.22c-3.36 0-6.084-2.912-6.084-6.506 0-3.593 2.724-6.505 6.085-6.505 3.36 0 6.085 2.912 6.085 6.505a6.765 6.765 0 0 1-1.21 3.881l3.664 3.918a1.051 1.051 0 0 1 0 1.415zm-4.326-9.214c0-2.487-1.887-4.504-4.213-4.504-2.327 0-4.213 2.017-4.213 4.504 0 2.49 1.886 4.504 4.213 4.504 2.326 0 4.213-2.015 4.213-4.504z"/></g></g></svg>