<?xml version="1.0" encoding="utf-8"?>
<!-- Generator: Adobe Illustrator 24.0.3, SVG Export Plug-In . SVG Version: 6.00 Build 0)  -->
<svg version="1.1" id="Capa_1" xmlns="http://www.w3.org/2000/svg" xmlns:xlink="http://www.w3.org/1999/xlink" x="0px" y="0px"
	 viewBox="0 0 512 349.1" style="enable-background:new 0 0 512 349.1;" xml:space="preserve">
<style type="text/css">
	.st0{fill:#0E0D12;}
</style>
<g>
	<g>
		<g>
			<g>
				<path class="st0" d="M256,104.7c-38.5,0-69.8,31.3-69.8,69.8s31.3,69.8,69.8,69.8s69.8-31.3,69.8-69.8S294.5,104.7,256,104.7z"
					/>
				<path class="st0" d="M256,0C139.6,0,40.3,72.4,0,174.5c40.3,102.2,139.6,174.5,256,174.5c116.5,0,215.7-72.4,256-174.5
					C471.7,72.4,372.5,0,256,0z M256,290.9c-64.2,0-116.4-52.1-116.4-116.4S191.8,58.2,256,58.2s116.4,52.1,116.4,116.4
					S320.2,290.9,256,290.9z"/>
			</g>
		</g>
	</g>
</g>
</svg>
