<?xml version="1.0" encoding="utf-8"?>
<!-- Generator: Adobe Illustrator 24.0.3, SVG Export Plug-In . SVG Version: 6.00 Build 0)  -->
<svg version="1.1" id="Bold" xmlns="http://www.w3.org/2000/svg" xmlns:xlink="http://www.w3.org/1999/xlink" x="0px" y="0px"
	 viewBox="0 0 512 298.7" style="enable-background:new 0 0 512 298.7;" xml:space="preserve">
<style type="text/css">
	.st0{fill:#2F2960;}
</style>
<g>
	<path class="st0" d="M424.9,171.3c-8.3-10.5-5.9-15.1,0-24.4c0.1-0.1,68.4-94.5,75.5-126.5l0,0c3.5-11.7,0-20.2-16.9-20.2h-56
		c-14.3,0-20.8,7.4-24.3,15.6c0,0-28.5,68.2-68.8,112.4c-13,12.8-19,16.9-26.1,16.9c-3.5,0-8.9-4.1-8.9-15.8V20.2
		c0-14-4-20.2-15.8-20.2h-88c-8.9,0-14.3,6.5-14.3,12.6c0,13.3,20.2,16.3,22.3,53.7v81c0,17.7-3.2,21-10.4,21
		c-19,0-65.2-68.5-92.6-146.9C95,6.2,89.6,0,75.2,0h-56C3.2,0,0,7.4,0,15.6c0,14.5,19,86.9,88.5,182.5
		c46.3,65.2,111.5,100.6,170.8,100.6c35.6,0,40-7.9,40-21.4c0-62.3-3.2-68.2,14.6-68.2c8.3,0,22.5,4.1,55.8,35.6
		c38,37.3,44.3,54,65.6,54h56c16,0,24-7.9,19.4-23.3C500,242.8,428.1,175.7,424.9,171.3z"/>
</g>
</svg>
